# xmcd
#
# Track frame offsets: 
#        150
#        18500
#        27455
#        37695
#        53587
#        67980
#        80565
#        91650
#        105972
#        116970
#
# Disc length: 1764 seconds
#
# Revision: 7
# Processed by: cddbd v1.5.2PL0 Copyright (c) Steve Scherf et al.
# Submitted via: ExactAudioCopyFreeDBPlugin 1.0
#
DISCID=6e06e20a
DTITLE=George Thorogood - Nadine
DYEAR=1986
DGENRE=Blues
TTITLE0=Nadine
TTITLE1=My Way
TTITLE2=You're Gonna Miss Me
TTITLE3=Worried About My Baby
TTITLE4=Night-Time
TTITLE5=I'm Ready
TTITLE6=My Weakness
TTITLE7=Goodbye Baby
TTITLE8=Huckle Up Baby
TTITLE9=Howlin' for My Darling
EXTD=GEORGE THOROGOOD: NADINE\n\nA collection of demos recorded in 197
EXTD=4 and originally \nreleased as "Better Than The Rest" in 1979. ID
EXTD=3G: 17\n
EXTT0=
EXTT1=
EXTT2=
EXTT3=
EXTT4=
EXTT5=
EXTT6=
EXTT7=
EXTT8=
EXTT9=
PLAYORDER=
